<?xml version="1.0" encoding="UTF-8"?>
<svg id="Layer_1" xmlns="http://www.w3.org/2000/svg" width="14.3" height="14.3" version="1.1" viewBox="0 0 14.3 14.3">
  <!-- Generator: Adobe Illustrator 29.2.1, SVG Export Plug-In . SVG Version: 2.1.0 Build 116)  -->
  <defs>
    <style>
      .st0 {
        fill: #fff;
      }
    </style>
  </defs>
  <path class="st0" d="M13.4,0H1C.5,0,0,.5,0,1v12.2c0,.6.5,1,1,1h12.2c.6,0,1-.5,1-1V1c0-.6-.5-1-1-1h0ZM4.3,12.2h-2.2v-6.9h2.2v6.9ZM3.2,4.4c-.7,0-1.3-.6-1.3-1.3s.6-1.3,1.3-1.3,1.3.6,1.3,1.3-.6,1.3-1.3,1.3ZM12.2,12.2h-2.2v-3.8c0-1.1-.5-1.4-1-1.4s-1.3.5-1.3,1.4v3.8h-2.2v-6.9h2.1v1h0c.2-.4,1-1.1,2.1-1.1s2.5.7,2.5,2.8c0,0,0,4.2,0,4.2Z"/>
</svg>