<?xml version="1.0" encoding="UTF-8"?>
<svg id="Layer_1" xmlns="http://www.w3.org/2000/svg" width="228" height="221.1" version="1.1" viewBox="0 0 228 221.1">
  <!-- Generator: Adobe Illustrator 29.2.1, SVG Export Plug-In . SVG Version: 2.1.0 Build 116)  -->
  <defs>
    <style>
      .st0 {
        fill: #fe2c55;
      }

      .st1 {
        fill: #fff;
      }

      .st2 {
        fill: #25f4ee;
      }
    </style>
  </defs>
  <g>
    <path class="st2" d="M100.6,56.8v-5.7c-1.9-.3-3.9-.4-5.9-.4-24,0-43.6,19.6-43.6,43.6s7.4,27.8,18.6,35.7c-7.3-7.8-11.6-18.2-11.6-29.7,0-23.7,18.9-42.9,42.4-43.4h0Z"/>
    <path class="st2" d="M101.6,120.2c10.7,0,19.6-8.7,20-19.3V6.2h17.3c-.4-2.1-.6-4.1-.6-6.2h-23.7v94.9c-.4,10.6-9.2,19.2-19.9,19.2s-6.5-.8-9.2-2.3c3.6,5,9.5,8.4,16.1,8.4h0Z"/>
    <path class="st2" d="M171.2,38.6v-5.6c-6.6,0-12.8-2-17.9-5.3,4.6,5.3,10.8,9.4,17.9,10.9Z"/>
    <path class="st0" d="M153.3,27.7c-5-5.8-8.1-13.3-8.1-21.6h-6.5c1.7,9,7.1,16.8,14.6,21.6Z"/>
    <path class="st0" d="M94.7,74.1c-11,0-20,9.1-20,20.1s4.5,14.3,10.8,17.6c-2.4-3.3-3.8-7.3-3.8-11.6,0-11,8.9-19.9,19.9-19.9s4,.3,5.9.9v-24.2c-1.9-.3-3.9-.4-5.9-.4s-.7,0-1,0h0v18.3c-1.9-.6-3.7-.8-5.7-.8h-.2Z"/>
    <path class="st0" d="M171.2,38.3h-.1v18.3c-12.3,0-23.7-4-33-10.7v48.4c0,24-19.4,43.5-43.4,43.5s-17.9-2.8-25-7.8c8,8.5,19.3,13.9,31.9,13.9,24,0,43.6-19.5,43.6-43.6v-48.1c9.3,6.7,20.7,10.6,32.9,10.6v-23.7c-2.4,0-4.7-.3-6.9-.7h0Z"/>
    <path class="st1" d="M138.3,94.2v-48.1c9.3,6.7,20.7,10.6,32.9,10.6v-18.4c-7.1-1.5-13.3-5.3-17.9-10.6-7.4-4.8-12.8-12.6-14.4-21.6h-17.3v94.9c-.4,10.6-9.2,19.2-19.9,19.2s-12.5-3.3-16.1-8.3c-6.3-3.3-10.7-10-10.7-17.6,0-11,8.9-19.9,19.9-19.9s4,.3,5.9.9v-18.6c-23.6.6-42.6,19.9-42.6,43.6s4.4,21.9,11.7,29.7c7.1,5,15.7,7.9,25,7.9,24,0,43.6-19.5,43.6-43.6h-.1Z"/>
  </g>
  <g>
    <path class="st1" d="M0,169.7h38.2l-3.5,10.9h-9.9v40.4h-12.3v-40.4H.1v-10.9h-.1Z"/>
    <path class="st1" d="M100.7,169.7h39.1l-3.5,10.9h-10.8v40.4h-12.4v-40.4h-12.4v-10.9h0Z"/>
    <polygon class="st1" points="40.5 186 52.7 186 52.7 221 40.6 221 40.5 186"/>
    <path class="st1" d="M57.6,169.6h12.2v23.9l12.1-11.9h14.6l-15.3,14.9,17.2,24.6h-13.5l-11.5-17-3.6,3.5v13.5h-12.2s0-51.5,0-51.5Z"/>
    <path class="st1" d="M187.2,169.6h12.2v23.9l12.1-11.9h14.6l-15.3,14.9,17.2,24.6h-13.5l-11.5-17-3.6,3.5v13.5h-12.2v-51.5Z"/>
    <circle class="st1" cx="46.6" cy="175.9" r="6.2"/>
    <path class="st2" d="M138.3,200.1c0-11,8.5-20,19.3-20.9h-1.9c-11.6,0-20.9,9.4-20.9,20.9s9.4,20.9,20.9,20.9,1.4,0,1.9,0c-10.8-.8-19.3-9.9-19.3-20.9Z"/>
    <path class="st0" d="M162.3,179.1h-1.9c10.8.8,19.3,9.9,19.3,20.9s-8.5,20-19.3,20.9h1.9c11.6,0,20.9-9.4,20.9-20.9s-9.4-20.9-20.9-20.9Z"/>
    <path class="st1" d="M159,179.1c-11.6,0-20.9,9.4-20.9,20.9s9.4,20.9,20.9,20.9,20.9-9.4,20.9-20.9-9.4-20.9-20.9-20.9ZM159,210.2c-5.6,0-10.2-4.6-10.2-10.2s4.6-10.2,10.2-10.2,10.2,4.6,10.2,10.2-4.6,10.2-10.2,10.2Z"/>
  </g>
</svg>