<?xml version="1.0" encoding="UTF-8"?>
<svg id="Layer_1" xmlns="http://www.w3.org/2000/svg" width="121.5" height="85" version="1.1" viewBox="0 0 121.5 85">
  <!-- Generator: Adobe Illustrator 29.2.1, SVG Export Plug-In . SVG Version: 2.1.0 Build 116)  -->
  <defs>
    <style>
      .st0 {
        fill: #fff;
      }
    </style>
  </defs>
  <path class="st0" d="M118.9,13.3c-1.4-5.2-5.5-9.3-10.7-10.7C98.7,0,60.7,0,60.7,0c0,0-38,0-47.5,2.5C8.1,3.9,3.9,8.1,2.5,13.3,0,22.8,0,42.5,0,42.5c0,0,0,19.8,2.5,29.2,1.4,5.2,5.5,9.3,10.7,10.7,9.5,2.5,47.5,2.5,47.5,2.5,0,0,38,0,47.5-2.5,5.2-1.4,9.3-5.5,10.7-10.7,2.5-9.5,2.5-29.2,2.5-29.2,0,0,0-19.8-2.5-29.2ZM48.6,60.7V24.3l31.6,18.2-31.6,18.2Z"/>
</svg>